# xmcd
#
# Track frame offsets: 
#        150
#        10753
#        24248
#        32067
#        48460
#        58150
#        68154
#        78398
#        87520
#        98313
#        112112
#        124746
#        134600
#        147541
#        158605
#        169048
#        179519
#        187709
#        199671
#        211558
#
# Disc length: 2937 seconds
#
# Revision: 1
# Processed by: cddbd v1.5.2PL0 Copyright (c) Steve Scherf et al.
# Submitted via: ExactAudioCopy v1.0b1
#
DISCID=090b7714
DTITLE=Various Artist - The Roots of Led Zeppelin - Train Kept a Rolli
DTITLE=n'
DYEAR=2009
DGENRE=Blues
TTITLE0=Fat Domino - Blueberry Hill
TTITLE1=Little Richard - The Girl Can't Help It
TTITLE2=Eddie Cochran - Twenty Flight Rock
TTITLE3=Otis Rush - I Can't Quite You Baby
TTITLE4=Elvis - Lawdy Miss Clawdy
TTITLE5=Dale Hawkins - Susie Q
TTITLE6=Johnny Burnette - Train Kept a Rollin'
TTITLE7=Little Richard - Long Tall Sally
TTITLE8=Chuck Berry - Roll Over Beethoven
TTITLE9=Howlin' Wolf - Smokestack Lightning
TTITLE10=Chas McDevitt - Cotton Song
TTITLE11=Little Richard - Keep-a-knockin'
TTITLE12=Jerry Lee Lewis - Whole Lotta Shakin' Goin' On
TTITLE13=The Diamonds - The Stroll
TTITLE14=The Monotones - The Book Of Love
TTITLE15=Jimmie Rodgers - Kisses Sweeter Than Wine
TTITLE16=Buddy Holly - Rave On
TTITLE17=Chuck Berry - Johnny B Goode
TTITLE18=The Platters - Smoke Gets In Your Eyes
TTITLE19=Eddie Cochran - C'Mon Everybody
EXTD=YEAR: 2009
EXTT0=
EXTT1=
EXTT2=
EXTT3=
EXTT4=
EXTT5=
EXTT6=
EXTT7=
EXTT8=
EXTT9=
EXTT10=
EXTT11=
EXTT12=
EXTT13=
EXTT14=
EXTT15=
EXTT16=
EXTT17=
EXTT18=
EXTT19=
PLAYORDER=
